<?xml version="1.0" encoding="UTF-8"?>
<!DOCTYPE svg PUBLIC "-//W3C//DTD SVG 1.1//EN" "http://www.w3.org/Graphics/SVG/1.1/DTD/svg11.dtd">
<!-- Creator: CorelDRAW X7 -->
<svg xmlns="http://www.w3.org/2000/svg" xml:space="preserve" width="1000px" height="238px" version="1.1" style="shape-rendering:geometricPrecision; text-rendering:geometricPrecision; image-rendering:optimizeQuality; fill-rule:evenodd; clip-rule:evenodd"
viewBox="0 0 1000 238"
 xmlns:xlink="http://www.w3.org/1999/xlink">
 <defs>
  <style type="text/css">
   <![CDATA[
    .fil1 {fill:#3B3B3B}
    .fil3 {fill:#484547}
    .fil2 {fill:#6EC1C6}
    .fil0 {fill:#7BD7DC}
    .fil5 {fill:#BFF1F4}
    .fil4 {fill:#D7F7F9}
    .fil7 {fill:#DEC8BD}
    .fil6 {fill:#F9E0D2}
   ]]>
  </style>
 </defs>
 <g id="Camada_x0020_1">
  <metadata id="CorelCorpID_0Corel-Layer"/>
  <g id="_1994200983008">
   <path class="fil0" d="M259 119c-7,0 -11,-4 -19,-4 -5,0 -9,1 -9,6 0,3 4,5 8,7 6,2 12,4 17,7 10,5 14,12 14,21 0,16 -13,27 -34,27 -17,0 -32,-4 -32,-15 0,-5 4,-9 9,-9 7,0 11,5 22,5 6,0 10,-2 10,-6 0,-4 -3,-6 -8,-8 -5,-2 -12,-4 -18,-7 -9,-5 -13,-12 -13,-22 0,-16 11,-25 33,-25 16,0 29,3 29,13 0,6 -4,10 -9,10z"/>
   <path class="fil0" d="M331 163c13,0 21,-10 21,-24 0,-13 -8,-23 -21,-23 -13,0 -22,10 -22,23 0,14 9,24 22,24zm0 -67c25,0 45,16 45,43 0,28 -20,44 -45,44 -25,0 -45,-16 -45,-44 0,-27 20,-43 45,-43z"/>
   <path class="fil0" d="M447 119c-7,0 -11,-4 -19,-4 -5,0 -9,1 -9,6 0,3 4,5 8,7 6,2 12,4 17,7 10,5 14,12 14,21 0,16 -13,27 -34,27 -17,0 -32,-4 -32,-15 0,-5 4,-9 9,-9 8,0 11,5 22,5 6,0 10,-2 10,-6 0,-4 -3,-6 -8,-8 -5,-2 -12,-4 -18,-7 -9,-5 -13,-12 -13,-22 0,-16 11,-25 33,-25 16,0 29,3 29,13 0,6 -4,10 -9,10z"/>
   <path class="fil1" d="M521 97c5,0 10,5 10,10 0,5 -5,9 -10,9l-15 0 0 55c0,7 -6,12 -13,12 -6,0 -12,-5 -12,-12l0 -55 0 -19 0 -10c0,-16 6,-32 29,-32 7,0 13,1 18,3 7,3 11,6 11,12 0,6 -4,9 -9,9 -5,0 -9,-3 -15,-3 -7,0 -9,4 -9,13l0 8 15 0z"/>
   <path class="fil1" d="M604 99c5,3 8,6 8,11 0,7 -5,11 -11,11 -6,0 -8,-4 -16,-4 -12,0 -16,11 -16,23l0 31c0,7 -5,12 -12,12 -7,0 -12,-5 -12,-12l0 -64c0,-6 5,-11 12,-11 6,0 11,4 12,9 5,-6 12,-9 21,-9 5,0 10,1 14,3z"/>
   <path class="fil1" d="M670 162l0 -16c-11,0 -25,2 -25,11 0,5 5,8 12,8 4,0 9,-1 13,-3zm0 -33l0 -1c0,-4 -1,-8 -3,-10 -2,-3 -5,-4 -10,-4 -9,0 -16,6 -23,6 -5,0 -8,-4 -8,-9 0,-5 4,-9 10,-11 7,-3 16,-4 24,-4 9,0 20,1 27,9 4,5 7,12 7,22l0 44c0,7 -6,12 -12,12 -4,0 -8,-2 -10,-5 -7,4 -15,5 -23,5 -15,0 -28,-10 -28,-26 0,-21 24,-26 49,-28z"/>
   <path class="fil1" d="M710 67c0,-7 5,-12 12,-12 6,0 12,5 12,12l0 104c0,7 -6,12 -12,12 -7,0 -12,-5 -12,-12l0 -104z"/>
   <path class="fil1" d="M806 161l0 -43c-3,-1 -7,-2 -11,-2 -7,0 -13,4 -17,8 -3,4 -4,9 -4,15 0,8 3,13 7,16 5,5 12,6 20,6l5 0zm-8 20c-14,0 -27,-3 -36,-11 -8,-7 -13,-17 -13,-30 0,-11 3,-21 9,-29 8,-9 19,-15 36,-15 4,0 8,0 12,1l0 -30c0,-7 6,-12 12,-12 7,0 13,5 13,12l0 101c0,9 -7,13 -14,13l-19 0z"/>
   <path class="fil1" d="M894 162l0 -16c-11,0 -25,2 -25,11 0,5 6,8 13,8 4,0 8,-1 12,-3zm0 -33l0 -1c0,-4 0,-8 -2,-10 -2,-3 -6,-4 -10,-4 -10,0 -16,6 -23,6 -5,0 -9,-4 -9,-9 0,-5 5,-9 11,-11 7,-3 16,-4 24,-4 8,0 19,1 26,9 5,5 8,12 8,22l0 44c0,7 -6,12 -12,12 -5,0 -9,-2 -11,-5 -7,4 -14,5 -22,5 -15,0 -28,-10 -28,-26 0,-21 24,-26 48,-28z"/>
   <path class="fil1" d="M989 119c-7,0 -11,-4 -19,-4 -5,0 -9,1 -9,6 0,3 4,5 8,7 6,2 11,4 17,7 10,5 14,12 14,21 0,16 -13,27 -34,27 -17,0 -32,-4 -32,-15 0,-5 4,-9 9,-9 7,0 11,5 22,5 6,0 10,-2 10,-6 0,-4 -4,-6 -8,-8 -5,-2 -12,-4 -18,-7 -9,-5 -13,-12 -13,-22 0,-16 11,-25 32,-25 17,0 30,3 30,13 0,6 -4,10 -9,10z"/>
   <path class="fil0" d="M67 49c-18,34 -59,55 -59,86 0,45 38,61 59,61 0,0 1,0 2,0 33,0 59,-28 59,-61 0,-31 -43,-53 -61,-86z"/>
   <path class="fil0" d="M105 9c0,0 -14,1 -21,8 -11,9 -12,13 -13,17 0,0 14,-2 21,-7 6,-5 10,-11 13,-18z"/>
   <path class="fil0" d="M42 27c7,5 21,7 21,7 -1,-4 -2,-8 -13,-17 -7,-7 -21,-8 -21,-8 3,7 7,13 13,18z"/>
   <path class="fil2" d="M105 86c-12,-13 -23,-26 -34,-40 -4,-5 -11,9 -11,9 7,7 12,16 17,25 6,12 17,28 18,56 1,28 -8,54 -17,60 -9,7 0,5 0,5 0,0 26,-7 32,-15 6,-9 24,-27 23,-48 -1,-21 -15,-39 -28,-52z"/>
   <path class="fil2" d="M100 23c3,-6 5,-11 7,-17l-13 4c1,5 -1,10 -4,15 -5,5 -7,8 -7,8 0,0 14,-4 17,-10z"/>
   <path class="fil2" d="M64 25c0,0 -14,-13 -17,-13 -1,-1 -3,-1 -4,-1 2,3 5,7 6,12 1,3 2,6 2,10l13 3 0 -11z"/>
   <path class="fil3" d="M108 181c-6,5 -12,9 -19,11 -7,3 -14,4 -21,4l-1 0c-14,0 -27,-5 -37,-14 -14,-11 -22,-28 -22,-47 0,-18 15,-33 30,-49 10,-11 22,-23 29,-37 7,13 18,25 29,36 17,16 32,32 32,50 0,9 -2,18 -6,27 -3,7 -8,13 -14,19zm-79 -172c0,0 14,1 21,8 6,4 10,9 12,15 1,0 1,0 1,1 0,0 0,0 0,0 -3,0 -15,-1 -21,-6 -6,-5 -10,-12 -13,-18zm55 8c7,-7 21,-8 21,-8 -3,6 -7,13 -13,18 -6,5 -18,6 -21,6 0,0 0,0 0,0 0,-1 0,-1 0,-1 3,-6 7,-11 13,-15zm18 62l0 0c-10,-10 -21,-22 -28,-34l-2 -3c4,0 17,-2 25,-9 7,-5 13,-13 16,-21 1,-3 1,-6 -1,-9 -2,-2 -4,-3 -7,-3 0,0 0,0 -1,0 0,0 -17,2 -26,10 -4,4 -8,8 -11,12 -3,-4 -7,-8 -11,-12 -9,-8 -26,-10 -26,-10 -1,0 -1,0 -1,0 0,0 0,0 0,0 -3,0 -5,1 -7,3 -2,3 -2,6 -1,9 3,8 9,15 16,21 7,5 15,8 24,9l-2 3c-6,13 -17,24 -27,35l-1 1c-16,17 -31,33 -31,54 -1,21 8,41 25,54 12,10 26,15 42,16l1 0c17,-1 33,-7 45,-18 15,-13 23,-32 23,-52 0,-22 -17,-39 -34,-56z"/>
   <path class="fil4" d="M68 216c28,0 51,5 51,11 0,6 -23,11 -51,11 -28,0 -51,-5 -51,-11 0,-6 23,-11 51,-11z"/>
   <path class="fil5" d="M43 167c-7,-5 -11,-12 -14,-19 -1,-8 -1,-17 1,-25 1,-4 0,-7 -3,-8 -2,0 -4,1 -5,4 -4,10 -5,20 -2,30 3,11 10,19 19,25 4,2 11,-1 4,-7z"/>
   <path class="fil5" d="M30 112c3,0 4,-2 4,-4 0,-2 -1,-4 -4,-4 -2,0 -4,2 -4,4 0,2 2,4 4,4z"/>
   <path class="fil6" d="M148 120c0,0 1,1 1,1 0,0 -1,-1 -1,-1 -4,-18 -21,-31 -40,-31 -19,0 -35,13 -40,31 0,0 0,0 0,0 -4,1 -8,5 -9,9 -1,6 3,13 9,14 0,0 0,0 0,0 5,18 21,31 40,31 19,0 35,-13 40,-31 1,-4 2,-8 2,-11 0,-1 0,-1 0,-1 0,0 0,0 0,1 0,3 -1,7 -2,11 6,-1 10,-6 10,-11 0,-6 -4,-11 -10,-12z"/>
   <path class="fil7" d="M102 86c0,0 19,17 23,29 7,18 5,39 -5,55 -1,6 5,1 5,1 4,1 9,-1 11,-5 6,-7 11,-14 15,-22 4,-2 6,-5 8,-8 2,-4 -2,-13 -2,-13l-9 -10c0,0 -18,-25 -32,-26l-14 -1z"/>
   <path class="fil3" d="M84 138c0,1 1,2 2,2 1,0 2,-1 2,-2 0,-3 2,-5 4,-5 2,0 4,2 4,5 0,1 1,1 2,2 0,0 0,0 0,0l0 0c1,0 2,-1 2,-2 0,-5 -4,-9 -8,-9 -5,0 -8,4 -8,9z"/>
   <path class="fil3" d="M118 140c1,0 2,-1 2,-2 0,-3 2,-5 5,-5 2,0 4,2 4,5 0,1 1,2 2,2 1,0 2,-1 2,-2 0,-5 -4,-9 -8,-9 -5,0 -9,4 -9,9 0,1 1,2 2,2z"/>
   <path class="fil3" d="M100 151c-1,-1 -2,-1 -3,0 0,0 0,0 0,0 -1,1 -1,2 0,3 3,3 7,4 11,4 5,0 9,-1 12,-4 1,-1 1,-2 0,-3 -1,-1 -2,-1 -3,0 0,0 0,0 0,0l0 0c-5,5 -12,5 -17,0 0,0 0,0 0,0z"/>
   <path class="fil3" d="M110 145l0 0c0,0 1,0 1,-1l0 0c0,0 -1,-1 -1,-1 -1,0 -1,1 -1,1 0,1 0,1 1,1z"/>
   <path class="fil3" d="M107 145c0,0 1,0 1,-1l0 0c0,0 -1,-1 -1,-1 -1,0 -1,1 -1,1 0,1 0,1 1,1z"/>
   <path class="fil3" d="M65 140c-2,-2 -4,-5 -4,-8 0,-4 2,-7 4,-9 0,3 0,6 0,9 0,2 0,5 0,8zm86 -17c3,2 5,5 5,9 0,3 -2,6 -5,8 1,-3 1,-6 1,-8 0,-3 0,-6 -1,-9zm-62 -20c1,4 5,6 12,7 1,0 3,0 5,0 3,0 7,0 9,0 7,-1 9,-4 10,-6 1,-2 0,-5 -2,-6 -1,-2 -4,-3 -6,-4 -3,0 -6,0 -9,1 -1,1 -1,2 -1,3 0,0 0,0 0,0 0,1 2,2 3,1 3,-1 7,-1 10,2 1,0 1,1 1,2 0,1 -2,2 -6,2 -6,1 -20,2 -22,-4 0,-1 0,-3 1,-4 1,-2 4,-4 9,-5 2,-1 4,-1 6,-1 8,0 17,3 24,9 7,5 11,12 14,21 1,3 1,7 1,11 0,3 0,7 -1,11 -2,7 -7,14 -13,20 -6,5 -14,8 -22,9l0 0c0,0 0,0 0,0 0,0 0,0 -1,0l-6 0c0,0 0,0 0,0 0,0 0,0 -1,0l0 0c-8,-1 -15,-4 -21,-9 -6,-6 -11,-13 -13,-20 -1,-5 -1,-11 -1,-11 0,-4 0,-8 1,-11 3,-9 7,-16 14,-21 2,-2 3,-3 5,-4 -1,2 -1,5 0,7zm64 13c-7,-20 -25,-32 -45,-33 -10,0 -19,4 -27,9 -8,6 -14,14 -17,24 -4,1 -7,4 -9,8 -4,9 0,20 9,24 6,19 24,32 44,32 10,0 20,-3 28,-9 8,-6 14,-14 17,-23 4,-2 7,-5 9,-9 4,-9 0,-19 -9,-23z"/>
  </g>
 </g>
</svg>
